{"asset":{"version":"2.0","generator":"Prime Time Unity resource converter"},"scene":0,"scenes":[{"nodes":[0,1,2,3]}],"nodes":[{"name":"Rock_01","mesh":0},{"name":"Buoy_01","mesh":1},{"name":"Boat_01","mesh":2},{"name":"WoodenBoat_01","mesh":3}],"meshes":[{"name":"Rock_01","primitives":[{"attributes":{"POSITION":0,"NORMAL":1,"TEXCOORD_0":2,"COLOR_0":3},"indices":4,"mode":4,"material":0}]},{"name":"Buoy_01","primitives":[{"attributes":{"POSITION":5,"NORMAL":6,"TEXCOORD_0":7,"COLOR_0":8},"indices":9,"mode":4,"material":1}]},{"name":"Boat_01","primitives":[{"attributes":{"POSITION":10,"NORMAL":11,"TEXCOORD_0":12,"COLOR_0":13},"indices":14,"mode":4,"material":1}]},{"name":"WoodenBoat_01","primitives":[{"attributes":{"POSITION":15,"NORMAL":16,"TEXCOORD_0":17,"COLOR_0":18},"indices":19,"mode":4,"material":1}]}],"materials":[{"name":"ObstacleHard","doubleSided":true,"pbrMetallicRoughness":{"baseColorFactor":[1,1,1,1],"metallicFactor":0,"roughnessFactor":0.95}},{"name":"LitBase","doubleSided":true,"pbrMetallicRoughness":{"baseColorFactor":[1,1,1,1],"metallicFactor":0,"roughnessFactor":0.95}}],"textures":[],"images":[],"samplers":[{"magFilter":9728,"minFilter":9728,"wrapS":10497,"wrapT":10497}],"buffers":[{"uri":"sand_floats.bin","byteLength":212388}],"bufferViews":[{"buffer":0,"byteOffset":0,"byteLength":7944},{"buffer":0,"byteOffset":7944,"byteLength":7944},{"buffer":0,"byteOffset":15888,"byteLength":5296},{"buffer":0,"byteOffset":21184,"byteLength":10592},{"buffer":0,"byteOffset":31776,"byteLength":11004},{"buffer":0,"byteOffset":42780,"byteLength":7584},{"buffer":0,"byteOffset":50364,"byteLength":7584},{"buffer":0,"byteOffset":57948,"byteLength":5056},{"buffer":0,"byteOffset":63004,"byteLength":10112},{"buffer":0,"byteOffset":73116,"byteLength":4992},{"buffer":0,"byteOffset":78108,"byteLength":23508},{"buffer":0,"byteOffset":101616,"byteLength":23508},{"buffer":0,"byteOffset":125124,"byteLength":15672},{"buffer":0,"byteOffset":140796,"byteLength":31344},{"buffer":0,"byteOffset":172140,"byteLength":21216},{"buffer":0,"byteOffset":193356,"byteLength":3888},{"buffer":0,"byteOffset":197244,"byteLength":3888},{"buffer":0,"byteOffset":201132,"byteLength":2592},{"buffer":0,"byteOffset":203724,"byteLength":5184},{"buffer":0,"byteOffset":208908,"byteLength":3480}],"accessors":[{"bufferView":0,"componentType":5126,"count":662,"type":"VEC3","min":[-0.46680259704589844,-0.2441917210817337,-0.4851309359073639],"max":[0.4691595733165741,0.7214339375495911,0.35292303562164307]},{"bufferView":1,"componentType":5126,"count":662,"type":"VEC3","min":[-0.995559573173523,-0.8740969300270081,-0.9739589095115662],"max":[0.9890040755271912,0.9979008436203003,0.9999350309371948]},{"bufferView":2,"componentType":5126,"count":662,"type":"VEC2"},{"bufferView":3,"componentType":5126,"count":662,"type":"VEC4"},{"bufferView":4,"componentType":5125,"count":2751,"type":"SCALAR"},{"bufferView":5,"componentType":5126,"count":632,"type":"VEC3","min":[-0.18775199353694916,-0.23874199390411377,-0.18775199353694916],"max":[0.18775199353694916,0.6905049681663513,0.18775199353694916]},{"bufferView":6,"componentType":5126,"count":632,"type":"VEC3","min":[-1.0,-1.0,-1.0],"max":[1.0,1.0,1.0]},{"bufferView":7,"componentType":5126,"count":632,"type":"VEC2"},{"bufferView":8,"componentType":5126,"count":632,"type":"VEC4"},{"bufferView":9,"componentType":5125,"count":1248,"type":"SCALAR"},{"bufferView":10,"componentType":5126,"count":1959,"type":"VEC3","min":[-0.2144189178943634,-0.07057967782020569,-0.22740821540355682],"max":[0.21434253454208374,0.5183162093162537,0.28178372979164124]},{"bufferView":11,"componentType":5126,"count":1959,"type":"VEC3","min":[-1.0,-1.0,-1.0],"max":[1.0,1.0,1.0]},{"bufferView":12,"componentType":5126,"count":1959,"type":"VEC2"},{"bufferView":13,"componentType":5126,"count":1959,"type":"VEC4"},{"bufferView":14,"componentType":5125,"count":5304,"type":"SCALAR"},{"bufferView":15,"componentType":5126,"count":324,"type":"VEC3","min":[-0.1447262167930603,-0.010298434644937515,-0.23647868633270264],"max":[0.14745718240737915,0.388142853975296,0.21857312321662903]},{"bufferView":16,"componentType":5126,"count":324,"type":"VEC3","min":[-1.0,-0.99755859375,-1.0],"max":[1.0,0.9990234375,1.0]},{"bufferView":17,"componentType":5126,"count":324,"type":"VEC2"},{"bufferView":18,"componentType":5126,"count":324,"type":"VEC4"},{"bufferView":19,"componentType":5125,"count":870,"type":"SCALAR"}]}