{"asset":{"version":"2.0","generator":"Prime Time Unity resource converter"},"scene":0,"scenes":[{"nodes":[0,1,2,3,4,5,6,7,8,9,10,11,12,13,14,15,16,17,18,19,20,21,22,23,24,25,26,27,28]}],"nodes":[{"name":"highriserWall_cell_007","mesh":0},{"name":"highriserWall_cell_006","mesh":1},{"name":"highriserWall_cell_004","mesh":2},{"name":"highriserWall_cell","mesh":3},{"name":"highriserWall_cell_002","mesh":4},{"name":"highriserWall_cell_003","mesh":5},{"name":"highriserWall_cell_005","mesh":6},{"name":"highriserWall_cell_001","mesh":7},{"name":"woman_scientist","mesh":8,"matrix":[205.24799823760986,0.0,0.0,0.0,0.0,205.24799823760986,0.0,0.0,0.0,0.0,205.24799823760986,0.0,0.0,0.0,0.0,1.0]},{"name":"lowrise2Wall_cell_002","mesh":9},{"name":"lowriseWall_cell_002","mesh":10},{"name":"lowrise2Wall_cell_006","mesh":11},{"name":"lowriseWall_cell_003","mesh":12},{"name":"lowrise2Wall_cell_004","mesh":13},{"name":"lowrise2Wall_cell_007","mesh":14},{"name":"lowriseWall_cell_006","mesh":15},{"name":"lowriseWall_cell","mesh":16},{"name":"lowrise2Wall_cell_003","mesh":17},{"name":"lowrise2Wall_cell_001","mesh":18},{"name":"lowriseWall_cell_004","mesh":19},{"name":"lowrise2Wall_cell_005","mesh":20},{"name":"lowriseWall_cell_001","mesh":21},{"name":"lowrise2Wall_cell","mesh":22},{"name":"lowrise2Wall_cell_008","mesh":23},{"name":"lowriseWall_cell_005","mesh":24},{"name":"lowrise2Wall_cell_009","mesh":25},{"name":"murut","mesh":26},{"name":"man_business","mesh":27,"matrix":[2.059999942779541,0.0,0.0,0.0,0.0,2.059999942779541,0.0,0.0,0.0,0.0,2.059999942779541,0.0,0.0,0.0,0.0,1.0]},{"name":"man_casual","mesh":28,"matrix":[2.059999942779541,0.0,0.0,0.0,0.0,2.059999942779541,0.0,0.0,0.0,0.0,2.059999942779541,0.0,0.0,0.0,0.0,1.0]}],"meshes":[{"name":"highriserWall_cell_007","primitives":[{"attributes":{"POSITION":0,"NORMAL":1,"TEXCOORD_0":2},"indices":3,"mode":4,"material":0}]},{"name":"highriserWall_cell_006","primitives":[{"attributes":{"POSITION":4,"NORMAL":5,"TEXCOORD_0":6},"indices":7,"mode":4,"material":0},{"attributes":{"POSITION":4,"NORMAL":5,"TEXCOORD_0":6},"indices":8,"mode":4,"material":0}]},{"name":"highriserWall_cell_004","primitives":[{"attributes":{"POSITION":9,"NORMAL":10,"TEXCOORD_0":11},"indices":12,"mode":4,"material":1},{"attributes":{"POSITION":9,"NORMAL":10,"TEXCOORD_0":11},"indices":13,"mode":4,"material":2}]},{"name":"highriserWall_cell","primitives":[{"attributes":{"POSITION":14,"NORMAL":15,"TEXCOORD_0":16},"indices":17,"mode":4,"material":0}]},{"name":"highriserWall_cell_002","primitives":[{"attributes":{"POSITION":18,"NORMAL":19,"TEXCOORD_0":20},"indices":21,"mode":4,"material":1}]},{"name":"highriserWall_cell_003","primitives":[{"attributes":{"POSITION":22,"NORMAL":23,"TEXCOORD_0":24},"indices":25,"mode":4,"material":1},{"attributes":{"POSITION":22,"NORMAL":23,"TEXCOORD_0":24},"indices":26,"mode":4,"material":2}]},{"name":"highriserWall_cell_005","primitives":[{"attributes":{"POSITION":27,"NORMAL":28,"TEXCOORD_0":29},"indices":30,"mode":4,"material":0},{"attributes":{"POSITION":27,"NORMAL":28,"TEXCOORD_0":29},"indices":31,"mode":4,"material":0}]},{"name":"highriserWall_cell_001","primitives":[{"attributes":{"POSITION":32,"NORMAL":33,"TEXCOORD_0":34},"indices":35,"mode":4,"material":0},{"attributes":{"POSITION":32,"NORMAL":33,"TEXCOORD_0":34},"indices":36,"mode":4,"material":0}]},{"name":"woman_scientist","primitives":[{"attributes":{"POSITION":37,"NORMAL":38,"TEXCOORD_0":39},"indices":40,"mode":4,"material":3}]},{"name":"lowrise2Wall_cell_002","primitives":[{"attributes":{"POSITION":41,"NORMAL":42,"TEXCOORD_0":43},"indices":44,"mode":4,"material":0},{"attributes":{"POSITION":41,"NORMAL":42,"TEXCOORD_0":43},"indices":45,"mode":4,"material":0}]},{"name":"lowriseWall_cell_002","primitives":[{"attributes":{"POSITION":46,"NORMAL":47,"TEXCOORD_0":48},"indices":49,"mode":4,"material":4}]},{"name":"lowrise2Wall_cell_006","primitives":[{"attributes":{"POSITION":50,"NORMAL":51,"TEXCOORD_0":52},"indices":53,"mode":4,"material":4}]},{"name":"lowriseWall_cell_003","primitives":[{"attributes":{"POSITION":54,"NORMAL":55,"TEXCOORD_0":56},"indices":57,"mode":4,"material":4},{"attributes":{"POSITION":54,"NORMAL":55,"TEXCOORD_0":56},"indices":58,"mode":4,"material":4}]},{"name":"lowrise2Wall_cell_004","primitives":[{"attributes":{"POSITION":59,"NORMAL":60,"TEXCOORD_0":61},"indices":62,"mode":4,"material":4}]},{"name":"lowrise2Wall_cell_007","primitives":[{"attributes":{"POSITION":63,"NORMAL":64,"TEXCOORD_0":65},"indices":66,"mode":4,"material":4}]},{"name":"lowriseWall_cell_006","primitives":[{"attributes":{"POSITION":67,"NORMAL":68,"TEXCOORD_0":69},"indices":70,"mode":4,"material":4}]},{"name":"lowriseWall_cell","primitives":[{"attributes":{"POSITION":71,"NORMAL":72,"TEXCOORD_0":73},"indices":74,"mode":4,"material":4},{"attributes":{"POSITION":71,"NORMAL":72,"TEXCOORD_0":73},"indices":75,"mode":4,"material":4}]},{"name":"lowrise2Wall_cell_003","primitives":[{"attributes":{"POSITION":76,"NORMAL":77,"TEXCOORD_0":78},"indices":79,"mode":4,"material":4}]},{"name":"lowrise2Wall_cell_001","primitives":[{"attributes":{"POSITION":80,"NORMAL":81,"TEXCOORD_0":82},"indices":83,"mode":4,"material":0},{"attributes":{"POSITION":80,"NORMAL":81,"TEXCOORD_0":82},"indices":84,"mode":4,"material":0}]},{"name":"lowriseWall_cell_004","primitives":[{"attributes":{"POSITION":85,"NORMAL":86,"TEXCOORD_0":87},"indices":88,"mode":4,"material":4}]},{"name":"lowrise2Wall_cell_005","primitives":[{"attributes":{"POSITION":89,"NORMAL":90,"TEXCOORD_0":91},"indices":92,"mode":4,"material":4}]},{"name":"lowriseWall_cell_001","primitives":[{"attributes":{"POSITION":93,"NORMAL":94,"TEXCOORD_0":95},"indices":96,"mode":4,"material":4}]},{"name":"lowrise2Wall_cell","primitives":[{"attributes":{"POSITION":97,"NORMAL":98,"TEXCOORD_0":99},"indices":100,"mode":4,"material":0},{"attributes":{"POSITION":97,"NORMAL":98,"TEXCOORD_0":99},"indices":101,"mode":4,"material":0}]},{"name":"lowrise2Wall_cell_008","primitives":[{"attributes":{"POSITION":102,"NORMAL":103,"TEXCOORD_0":104},"indices":105,"mode":4,"material":4},{"attributes":{"POSITION":102,"NORMAL":103,"TEXCOORD_0":104},"indices":106,"mode":4,"material":4}]},{"name":"lowriseWall_cell_005","primitives":[{"attributes":{"POSITION":107,"NORMAL":108,"TEXCOORD_0":109},"indices":110,"mode":4,"material":4}]},{"name":"lowrise2Wall_cell_009","primitives":[{"attributes":{"POSITION":111,"NORMAL":112,"TEXCOORD_0":113},"indices":114,"mode":4,"material":4},{"attributes":{"POSITION":111,"NORMAL":112,"TEXCOORD_0":113},"indices":115,"mode":4,"material":4}]},{"name":"murut","primitives":[{"attributes":{"POSITION":116,"NORMAL":117,"TEXCOORD_0":118},"indices":119,"mode":4,"material":5},{"attributes":{"POSITION":116,"NORMAL":117,"TEXCOORD_0":118},"indices":120,"mode":4,"material":5}]},{"name":"man_business","primitives":[{"attributes":{"POSITION":121,"NORMAL":122,"TEXCOORD_0":123},"indices":124,"mode":4,"material":6}]},{"name":"man_casual","primitives":[{"attributes":{"POSITION":125,"NORMAL":126,"TEXCOORD_0":127},"indices":128,"mode":4,"material":6}]}],"materials":[{"name":"astalo_highrise","doubleSided":true,"pbrMetallicRoughness":{"baseColorFactor":[1,0.9764150977134705,0.9764150977134705,1],"metallicFactor":0,"roughnessFactor":0.95,"baseColorTexture":{"index":0}}},{"name":"None__citybuilding_png","doubleSided":true,"pbrMetallicRoughness":{"baseColorFactor":[0.800000011920929,0.800000011920929,0.800000011920929,1],"metallicFactor":0,"roughnessFactor":0.95,"baseColorTexture":{"index":0}}},{"name":"unnamed","doubleSided":true,"pbrMetallicRoughness":{"baseColorFactor":[0.800000011920929,0.800000011920929,0.800000011920929,1],"metallicFactor":0,"roughnessFactor":0.95,"baseColorTexture":{"index":0}}},{"name":"MatteBlack","doubleSided":true,"pbrMetallicRoughness":{"baseColorFactor":[0,0,0,1],"metallicFactor":0,"roughnessFactor":0.95}},{"name":"rollabuildings","doubleSided":true,"pbrMetallicRoughness":{"baseColorFactor":[1,1,1,1],"metallicFactor":0,"roughnessFactor":0.95,"baseColorTexture":{"index":1}}},{"name":"suburbpuskat","doubleSided":true,"pbrMetallicRoughness":{"baseColorFactor":[0.4811320900917053,0.4811320900917053,0.4811320900917053,1],"metallicFactor":0,"roughnessFactor":0.95,"baseColorTexture":{"index":2}}},{"name":"LOW-POLY-COLORS","doubleSided":true,"pbrMetallicRoughness":{"baseColorFactor":[1,1,1,1],"metallicFactor":0,"roughnessFactor":0.95,"baseColorTexture":{"index":3}}}],"textures":[{"source":0,"sampler":0},{"source":1,"sampler":0},{"source":2,"sampler":0},{"source":3,"sampler":0}],"images":[{"uri":"citybuilding_103.png"},{"uri":"rollabuildings3_145.png"},{"uri":"desertSprite_117.png"},{"uri":"color-atlas-new_104.png"}],"samplers":[{"magFilter":9728,"minFilter":9728,"wrapS":10497,"wrapT":10497}],"buffers":[{"byteLength":325748,"uri":"fracture_parts.bin"}],"bufferViews":[{"buffer":0,"byteOffset":0,"byteLength":288},{"buffer":0,"byteOffset":288,"byteLength":288},{"buffer":0,"byteOffset":576,"byteLength":192},{"buffer":0,"byteOffset":768,"byteLength":144},{"buffer":0,"byteOffset":912,"byteLength":432},{"buffer":0,"byteOffset":1344,"byteLength":432},{"buffer":0,"byteOffset":1776,"byteLength":288},{"buffer":0,"byteOffset":2064,"byteLength":168},{"buffer":0,"byteOffset":2232,"byteLength":72},{"buffer":0,"byteOffset":2304,"byteLength":216},{"buffer":0,"byteOffset":2520,"byteLength":216},{"buffer":0,"byteOffset":2736,"byteLength":144},{"buffer":0,"byteOffset":2880,"byteLength":48},{"buffer":0,"byteOffset":2928,"byteLength":48},{"buffer":0,"byteOffset":2976,"byteLength":288},{"buffer":0,"byteOffset":3264,"byteLength":288},{"buffer":0,"byteOffset":3552,"byteLength":192},{"buffer":0,"byteOffset":3744,"byteLength":144},{"buffer":0,"byteOffset":3888,"byteLength":288},{"buffer":0,"byteOffset":4176,"byteLength":288},{"buffer":0,"byteOffset":4464,"byteLength":192},{"buffer":0,"byteOffset":4656,"byteLength":144},{"buffer":0,"byteOffset":4800,"byteLength":624},{"buffer":0,"byteOffset":5424,"byteLength":624},{"buffer":0,"byteOffset":6048,"byteLength":416},{"buffer":0,"byteOffset":6464,"byteLength":312},{"buffer":0,"byteOffset":6776,"byteLength":24},{"buffer":0,"byteOffset":6800,"byteLength":216},{"buffer":0,"byteOffset":7016,"byteLength":216},{"buffer":0,"byteOffset":7232,"byteLength":144},{"buffer":0,"byteOffset":7376,"byteLength":72},{"buffer":0,"byteOffset":7448,"byteLength":24},{"buffer":0,"byteOffset":7472,"byteLength":360},{"buffer":0,"byteOffset":7832,"byteLength":360},{"buffer":0,"byteOffset":8192,"byteLength":240},{"buffer":0,"byteOffset":8432,"byteLength":72},{"buffer":0,"byteOffset":8504,"byteLength":120},{"buffer":0,"byteOffset":8624,"byteLength":34872},{"buffer":0,"byteOffset":43496,"byteLength":34872},{"buffer":0,"byteOffset":78368,"byteLength":23248},{"buffer":0,"byteOffset":101616,"byteLength":17736},{"buffer":0,"byteOffset":119352,"byteLength":288},{"buffer":0,"byteOffset":119640,"byteLength":288},{"buffer":0,"byteOffset":119928,"byteLength":192},{"buffer":0,"byteOffset":120120,"byteLength":96},{"buffer":0,"byteOffset":120216,"byteLength":48},{"buffer":0,"byteOffset":120264,"byteLength":264},{"buffer":0,"byteOffset":120528,"byteLength":264},{"buffer":0,"byteOffset":120792,"byteLength":176},{"buffer":0,"byteOffset":120968,"byteLength":144},{"buffer":0,"byteOffset":121112,"byteLength":252},{"buffer":0,"byteOffset":121364,"byteLength":252},{"buffer":0,"byteOffset":121616,"byteLength":168},{"buffer":0,"byteOffset":121784,"byteLength":132},{"buffer":0,"byteOffset":121916,"byteLength":408},{"buffer":0,"byteOffset":122324,"byteLength":408},{"buffer":0,"byteOffset":122732,"byteLength":272},{"buffer":0,"byteOffset":123004,"byteLength":48},{"buffer":0,"byteOffset":123052,"byteLength":168},{"buffer":0,"byteOffset":123220,"byteLength":288},{"buffer":0,"byteOffset":123508,"byteLength":288},{"buffer":0,"byteOffset":123796,"byteLength":192},{"buffer":0,"byteOffset":123988,"byteLength":144},{"buffer":0,"byteOffset":124132,"byteLength":288},{"buffer":0,"byteOffset":124420,"byteLength":288},{"buffer":0,"byteOffset":124708,"byteLength":192},{"buffer":0,"byteOffset":124900,"byteLength":144},{"buffer":0,"byteOffset":125044,"byteLength":216},{"buffer":0,"byteOffset":125260,"byteLength":216},{"buffer":0,"byteOffset":125476,"byteLength":144},{"buffer":0,"byteOffset":125620,"byteLength":120},{"buffer":0,"byteOffset":125740,"byteLength":600},{"buffer":0,"byteOffset":126340,"byteLength":600},{"buffer":0,"byteOffset":126940,"byteLength":400},{"buffer":0,"byteOffset":127340,"byteLength":216},{"buffer":0,"byteOffset":127556,"byteLength":96},{"buffer":0,"byteOffset":127652,"byteLength":312},{"buffer":0,"byteOffset":127964,"byteLength":312},{"buffer":0,"byteOffset":128276,"byteLength":208},{"buffer":0,"byteOffset":128484,"byteLength":168},{"buffer":0,"byteOffset":128652,"byteLength":432},{"buffer":0,"byteOffset":129084,"byteLength":432},{"buffer":0,"byteOffset":129516,"byteLength":288},{"buffer":0,"byteOffset":129804,"byteLength":72},{"buffer":0,"byteOffset":129876,"byteLength":168},{"buffer":0,"byteOffset":130044,"byteLength":144},{"buffer":0,"byteOffset":130188,"byteLength":144},{"buffer":0,"byteOffset":130332,"byteLength":96},{"buffer":0,"byteOffset":130428,"byteLength":72},{"buffer":0,"byteOffset":130500,"byteLength":300},{"buffer":0,"byteOffset":130800,"byteLength":300},{"buffer":0,"byteOffset":131100,"byteLength":200},{"buffer":0,"byteOffset":131300,"byteLength":156},{"buffer":0,"byteOffset":131456,"byteLength":336},{"buffer":0,"byteOffset":131792,"byteLength":336},{"buffer":0,"byteOffset":132128,"byteLength":224},{"buffer":0,"byteOffset":132352,"byteLength":168},{"buffer":0,"byteOffset":132520,"byteLength":360},{"buffer":0,"byteOffset":132880,"byteLength":360},{"buffer":0,"byteOffset":133240,"byteLength":240},{"buffer":0,"byteOffset":133480,"byteLength":120},{"buffer":0,"byteOffset":133600,"byteLength":72},{"buffer":0,"byteOffset":133672,"byteLength":288},{"buffer":0,"byteOffset":133960,"byteLength":288},{"buffer":0,"byteOffset":134248,"byteLength":192},{"buffer":0,"byteOffset":134440,"byteLength":108},{"buffer":0,"byteOffset":134548,"byteLength":36},{"buffer":0,"byteOffset":134584,"byteLength":192},{"buffer":0,"byteOffset":134776,"byteLength":192},{"buffer":0,"byteOffset":134968,"byteLength":128},{"buffer":0,"byteOffset":135096,"byteLength":96},{"buffer":0,"byteOffset":135192,"byteLength":912},{"buffer":0,"byteOffset":136104,"byteLength":912},{"buffer":0,"byteOffset":137016,"byteLength":608},{"buffer":0,"byteOffset":137624,"byteLength":372},{"buffer":0,"byteOffset":137996,"byteLength":108},{"buffer":0,"byteOffset":138104,"byteLength":6084},{"buffer":0,"byteOffset":144188,"byteLength":6084},{"buffer":0,"byteOffset":150272,"byteLength":4056},{"buffer":0,"byteOffset":154328,"byteLength":4284},{"buffer":0,"byteOffset":158612,"byteLength":480},{"buffer":0,"byteOffset":159092,"byteLength":26796},{"buffer":0,"byteOffset":185888,"byteLength":26796},{"buffer":0,"byteOffset":212684,"byteLength":17864},{"buffer":0,"byteOffset":230548,"byteLength":14232},{"buffer":0,"byteOffset":244780,"byteLength":25332},{"buffer":0,"byteOffset":270112,"byteLength":25332},{"buffer":0,"byteOffset":295444,"byteLength":16888},{"buffer":0,"byteOffset":312332,"byteLength":13416}],"accessors":[{"bufferView":0,"componentType":5126,"count":24,"type":"VEC3","min":[-0.2279990017414093,-0.2279990017414093,-0.2279990017414093],"max":[0.2279990017414093,0.2279990017414093,0.2279990017414093]},{"bufferView":1,"componentType":5126,"count":24,"type":"VEC3","min":[-1.0,-1.0,-1.0],"max":[1.0,1.0,1.0]},{"bufferView":2,"componentType":5126,"count":24,"type":"VEC2"},{"bufferView":3,"componentType":5125,"count":36,"type":"SCALAR"},{"bufferView":4,"componentType":5126,"count":36,"type":"VEC3","min":[-1.8818529844284058,-0.1841209977865219,-4.194606781005859],"max":[2.211359977722168,0.1841209977865219,3.223426103591919]},{"bufferView":5,"componentType":5126,"count":36,"type":"VEC3","min":[-1.0,-1.0,-0.9415017366409302],"max":[1.0,1.0,1.0]},{"bufferView":6,"componentType":5126,"count":36,"type":"VEC2"},{"bufferView":7,"componentType":5125,"count":42,"type":"SCALAR"},{"bufferView":8,"componentType":5125,"count":18,"type":"SCALAR"},{"bufferView":9,"componentType":5126,"count":18,"type":"VEC3","min":[-1.6896950006484985,-0.1841209977865219,-2.2672879695892334],"max":[0.7316259741783142,0.1841209977865219,3.133125066757202]},{"bufferView":10,"componentType":5126,"count":18,"type":"VEC3","min":[-0.6805412173271179,-1.0,-0.5918799638748169],"max":[1.0,1.0,0.40640613436698914]},{"bufferView":11,"componentType":5126,"count":18,"type":"VEC2"},{"bufferView":12,"componentType":5125,"count":12,"type":"SCALAR"},{"bufferView":13,"componentType":5125,"count":12,"type":"SCALAR"},{"bufferView":14,"componentType":5126,"count":24,"type":"VEC3","min":[-0.2279990017414093,-0.2279990017414093,-0.2279990017414093],"max":[0.2279990017414093,0.2279990017414093,0.2279990017414093]},{"bufferView":15,"componentType":5126,"count":24,"type":"VEC3","min":[-1.0,-1.0,-1.0],"max":[1.0,1.0,1.0]},{"bufferView":16,"componentType":5126,"count":24,"type":"VEC2"},{"bufferView":17,"componentType":5125,"count":36,"type":"SCALAR"},{"bufferView":18,"componentType":5126,"count":24,"type":"VEC3","min":[-0.2279990017414093,-0.2279990017414093,-0.2279990017414093],"max":[0.2279990017414093,0.2279990017414093,0.2279990017414093]},{"bufferView":19,"componentType":5126,"count":24,"type":"VEC3","min":[-1.0,-1.0,-1.0],"max":[1.0,1.0,1.0]},{"bufferView":20,"componentType":5126,"count":24,"type":"VEC2"},{"bufferView":21,"componentType":5125,"count":36,"type":"SCALAR"},{"bufferView":22,"componentType":5126,"count":52,"type":"VEC3","min":[-2.0466060638427734,-0.7154769897460938,-2.362471103668213],"max":[2.0466060638427734,0.4839859902858734,1.7972819805145264]},{"bufferView":23,"componentType":5126,"count":52,"type":"VEC3","min":[-1.0,-1.0,-1.0],"max":[1.0,1.0,0.8393741846084595]},{"bufferView":24,"componentType":5126,"count":52,"type":"VEC2"},{"bufferView":25,"componentType":5125,"count":78,"type":"SCALAR"},{"bufferView":26,"componentType":5125,"count":6,"type":"SCALAR"},{"bufferView":27,"componentType":5126,"count":18,"type":"VEC3","min":[-0.4020949900150299,-0.1841209977865219,-1.527135968208313],"max":[0.9025139808654785,0.1841209977865219,0.6804109811782837]},{"bufferView":28,"componentType":5126,"count":18,"type":"VEC3","min":[-1.0,-1.0,-0.46226581931114197],"max":[0.7822296619415283,1.0,1.0]},{"bufferView":29,"componentType":5126,"count":18,"type":"VEC2"},{"bufferView":30,"componentType":5125,"count":18,"type":"SCALAR"},{"bufferView":31,"componentType":5125,"count":6,"type":"SCALAR"},{"bufferView":32,"componentType":5126,"count":30,"type":"VEC3","min":[-2.0163819789886475,-0.1841209977865219,-1.289991021156311],"max":[2.076831102371216,0.1841209977865219,1.3921129703521729]},{"bufferView":33,"componentType":5126,"count":30,"type":"VEC3","min":[-1.0,-1.0,-0.7747011184692383],"max":[1.0,1.0,0.9414377808570862]},{"bufferView":34,"componentType":5126,"count":30,"type":"VEC2"},{"bufferView":35,"componentType":5125,"count":18,"type":"SCALAR"},{"bufferView":36,"componentType":5125,"count":30,"type":"SCALAR"},{"bufferView":37,"componentType":5126,"count":2906,"type":"VEC3","min":[-0.009249664843082428,1.810192952689249e-05,-0.0020040692761540413],"max":[0.009249664843082428,0.0179477296769619,0.0016664715949445963]},{"bufferView":38,"componentType":5126,"count":2906,"type":"VEC3","min":[-0.9986060261726379,-0.9998631477355957,-0.9993966817855835],"max":[0.9986060261726379,0.9983888864517212,0.9947273135185242]},{"bufferView":39,"componentType":5126,"count":2906,"type":"VEC2"},{"bufferView":40,"componentType":5125,"count":4434,"type":"SCALAR"},{"bufferView":41,"componentType":5126,"count":24,"type":"VEC3","min":[-1.3970520496368408,-1.632243037223816,-0.10525400191545486],"max":[1.0311880111694336,1.765516996383667,0.10525500029325485]},{"bufferView":42,"componentType":5126,"count":24,"type":"VEC3","min":[-0.9386081695556641,-1.0,-1.0],"max":[1.0,0.7322738766670227,1.0]},{"bufferView":43,"componentType":5126,"count":24,"type":"VEC2"},{"bufferView":44,"componentType":5125,"count":24,"type":"SCALAR"},{"bufferView":45,"componentType":5125,"count":12,"type":"SCALAR"},{"bufferView":46,"componentType":5126,"count":22,"type":"VEC3","min":[-1.221634030342102,-2.143332004547119,-0.1052279993891716],"max":[0.916923999786377,2.143332004547119,0.10527999699115753]},{"bufferView":47,"componentType":5126,"count":22,"type":"VEC3","min":[-1.0,-1.0,-1.0],"max":[-0.0,1.0,1.0]},{"bufferView":48,"componentType":5126,"count":22,"type":"VEC2"},{"bufferView":49,"componentType":5125,"count":36,"type":"SCALAR"},{"bufferView":50,"componentType":5126,"count":21,"type":"VEC3","min":[-0.47432899475097656,-0.25172901153564453,-2.101823091506958],"max":[1.3402999639511108,0.23254899680614471,2.6497490406036377]},{"bufferView":51,"componentType":5126,"count":21,"type":"VEC3","min":[-1.0,-1.0,0.0],"max":[-0.0,1.0,1.0]},{"bufferView":52,"componentType":5126,"count":21,"type":"VEC2"},{"bufferView":53,"componentType":5125,"count":33,"type":"SCALAR"},{"bufferView":54,"componentType":5126,"count":34,"type":"VEC3","min":[-2.37556791305542,-0.1315149962902069,-2.813673973083496],"max":[1.7176450490951538,0.23672600090503693,3.055859088897705]},{"bufferView":55,"componentType":5126,"count":34,"type":"VEC3","min":[-1.0,-1.0,0.0],"max":[1.0,1.0,0.9976043105125427]},{"bufferView":56,"componentType":5126,"count":34,"type":"VEC2"},{"bufferView":57,"componentType":5125,"count":12,"type":"SCALAR"},{"bufferView":58,"componentType":5125,"count":42,"type":"SCALAR"},{"bufferView":59,"componentType":5126,"count":24,"type":"VEC3","min":[-0.2279990017414093,-0.2279990017414093,-0.20207400619983673],"max":[0.2279990017414093,0.2279990017414093,0.20207400619983673]},{"bufferView":60,"componentType":5126,"count":24,"type":"VEC3","min":[-1.0,-1.0,-1.0],"max":[1.0,1.0,1.0]},{"bufferView":61,"componentType":5126,"count":24,"type":"VEC2"},{"bufferView":62,"componentType":5125,"count":36,"type":"SCALAR"},{"bufferView":63,"componentType":5126,"count":24,"type":"VEC3","min":[-0.2279990017414093,-0.2279990017414093,-0.2279990017414093],"max":[0.2279990017414093,0.2279990017414093,0.2279990017414093]},{"bufferView":64,"componentType":5126,"count":24,"type":"VEC3","min":[-1.0,-1.0,-1.0],"max":[1.0,1.0,1.0]},{"bufferView":65,"componentType":5126,"count":24,"type":"VEC2"},{"bufferView":66,"componentType":5125,"count":36,"type":"SCALAR"},{"bufferView":67,"componentType":5126,"count":18,"type":"VEC3","min":[-1.1506940126419067,-0.1841209977865219,-2.8590478897094727],"max":[0.8838070034980774,0.1841209977865219,1.3405879735946655]},{"bufferView":68,"componentType":5126,"count":18,"type":"VEC3","min":[-1.0,-1.0,0.0],"max":[-0.0,1.0,1.0]},{"bufferView":69,"componentType":5126,"count":18,"type":"VEC2"},{"bufferView":70,"componentType":5125,"count":30,"type":"SCALAR"},{"bufferView":71,"componentType":5126,"count":50,"type":"VEC3","min":[-0.9777500033378601,-1.575875997543335,-0.1414639949798584],"max":[1.1443610191345215,2.9093730449676514,0.36274001002311707]},{"bufferView":72,"componentType":5126,"count":50,"type":"VEC3","min":[-0.9943245053291321,-1.0,-1.0],"max":[1.0,1.0,1.0]},{"bufferView":73,"componentType":5126,"count":50,"type":"VEC2"},{"bufferView":74,"componentType":5125,"count":54,"type":"SCALAR"},{"bufferView":75,"componentType":5125,"count":24,"type":"SCALAR"},{"bufferView":76,"componentType":5126,"count":26,"type":"VEC3","min":[-2.14811110496521,-0.1841209977865219,-2.2740468978881836],"max":[1.4553849697113037,0.1841209977865219,1.9990240335464478]},{"bufferView":77,"componentType":5126,"count":26,"type":"VEC3","min":[-0.0,-1.0,0.0],"max":[1.0,1.0,1.0]},{"bufferView":78,"componentType":5126,"count":26,"type":"VEC2"},{"bufferView":79,"componentType":5125,"count":42,"type":"SCALAR"},{"bufferView":80,"componentType":5126,"count":36,"type":"VEC3","min":[-1.3365609645843506,-2.5072379112243652,-0.10525400191545486],"max":[0.980089008808136,1.779425024986267,0.10525400191545486]},{"bufferView":81,"componentType":5126,"count":36,"type":"VEC3","min":[-1.0,-1.0,-1.0],"max":[0.9385702610015869,1.0,1.0]},{"bufferView":82,"componentType":5126,"count":36,"type":"VEC2"},{"bufferView":83,"componentType":5125,"count":18,"type":"SCALAR"},{"bufferView":84,"componentType":5125,"count":42,"type":"SCALAR"},{"bufferView":85,"componentType":5126,"count":12,"type":"VEC3","min":[-1.236881971359253,-0.1841209977865219,-0.7728350162506104],"max":[1.1141239404678345,0.1841209977865219,0.7307029962539673]},{"bufferView":86,"componentType":5126,"count":12,"type":"VEC3","min":[-0.0,-1.0,0.0],"max":[1.0,1.0,0.0]},{"bufferView":87,"componentType":5126,"count":12,"type":"VEC2"},{"bufferView":88,"componentType":5125,"count":18,"type":"SCALAR"},{"bufferView":89,"componentType":5126,"count":25,"type":"VEC3","min":[-0.2124760001897812,-0.20898500084877014,-0.2004929929971695],"max":[0.24352200329303741,0.24701400101184845,0.2555049955844879]},{"bufferView":90,"componentType":5126,"count":25,"type":"VEC3","min":[-1.0,-1.0,-1.0],"max":[1.0,1.0,1.0]},{"bufferView":91,"componentType":5126,"count":25,"type":"VEC2"},{"bufferView":92,"componentType":5125,"count":39,"type":"SCALAR"},{"bufferView":93,"componentType":5126,"count":28,"type":"VEC3","min":[-1.796731948852539,-0.12274699658155441,-2.0566039085388184],"max":[2.296480894088745,0.24549399316310883,2.486207962036133]},{"bufferView":94,"componentType":5126,"count":28,"type":"VEC3","min":[-1.0,-1.0,-1.0],"max":[1.0,1.0,0.0]},{"bufferView":95,"componentType":5126,"count":28,"type":"VEC2"},{"bufferView":96,"componentType":5125,"count":42,"type":"SCALAR"},{"bufferView":97,"componentType":5126,"count":30,"type":"VEC3","min":[-1.0355470180511475,-0.6384509801864624,-0.10525400191545486],"max":[1.145658016204834,0.515753984451294,0.10525500029325485]},{"bufferView":98,"componentType":5126,"count":30,"type":"VEC3","min":[-0.743725061416626,-0.7322084903717041,-1.0],"max":[1.0,1.0,1.0]},{"bufferView":99,"componentType":5126,"count":30,"type":"VEC2"},{"bufferView":100,"componentType":5125,"count":30,"type":"SCALAR"},{"bufferView":101,"componentType":5125,"count":18,"type":"SCALAR"},{"bufferView":102,"componentType":5126,"count":24,"type":"VEC3","min":[-0.036757998168468475,-0.2626250088214874,-0.25153398513793945],"max":[0.13889899849891663,0.19337299466133118,0.20446500182151794]},{"bufferView":103,"componentType":5126,"count":24,"type":"VEC3","min":[-1.0,-1.0,-1.0],"max":[0.9385702610015869,1.0,1.0]},{"bufferView":104,"componentType":5126,"count":24,"type":"VEC2"},{"bufferView":105,"componentType":5125,"count":27,"type":"SCALAR"},{"bufferView":106,"componentType":5125,"count":9,"type":"SCALAR"},{"bufferView":107,"componentType":5126,"count":16,"type":"VEC3","min":[-1.0797820091247559,-2.1433310508728027,-0.05206099897623062],"max":[0.9812350273132324,2.143332004547119,0.05249200016260147]},{"bufferView":108,"componentType":5126,"count":16,"type":"VEC3","min":[-0.0,-1.0,-1.0],"max":[1.0,1.0,0.0]},{"bufferView":109,"componentType":5126,"count":16,"type":"VEC2"},{"bufferView":110,"componentType":5125,"count":24,"type":"SCALAR"},{"bufferView":111,"componentType":5126,"count":76,"type":"VEC3","min":[-1.5879039764404297,-0.788453996181488,-2.0887560844421387],"max":[2.505307912826538,0.4110090136528015,1.394245982170105]},{"bufferView":112,"componentType":5126,"count":76,"type":"VEC3","min":[-1.0,-1.0,-1.0],"max":[1.0,1.0,0.8367717266082764]},{"bufferView":113,"componentType":5126,"count":76,"type":"VEC2"},{"bufferView":114,"componentType":5125,"count":93,"type":"SCALAR"},{"bufferView":115,"componentType":5125,"count":27,"type":"SCALAR"},{"bufferView":116,"componentType":5126,"count":507,"type":"VEC3","min":[-412.6811218261719,-213.28602600097656,-2.7201929092407227],"max":[172.97647094726562,351.5967102050781,3.000000106112566e-06]},{"bufferView":117,"componentType":5126,"count":507,"type":"VEC3","min":[-0.9709427952766418,-0.8537891507148743,-0.9383286237716675],"max":[6.200001371325925e-05,0.0004279999411664903,1.0]},{"bufferView":118,"componentType":5126,"count":507,"type":"VEC2"},{"bufferView":119,"componentType":5125,"count":1071,"type":"SCALAR"},{"bufferView":120,"componentType":5125,"count":120,"type":"SCALAR"},{"bufferView":121,"componentType":5126,"count":2233,"type":"VEC3","min":[-0.9308841228485107,0.0006917119026184082,-0.13736562430858612],"max":[0.9308841228485107,1.778948187828064,0.16540227830410004]},{"bufferView":122,"componentType":5126,"count":2233,"type":"VEC3","min":[-0.9999808073043823,-1.0,-0.9924930930137634],"max":[0.9999808073043823,0.9999856948852539,1.0]},{"bufferView":123,"componentType":5126,"count":2233,"type":"VEC2"},{"bufferView":124,"componentType":5125,"count":3558,"type":"SCALAR"},{"bufferView":125,"componentType":5126,"count":2111,"type":"VEC3","min":[-0.9308841228485107,0.0006917119026184082,-0.11011577397584915],"max":[0.9308841228485107,1.8053765296936035,0.16540229320526123]},{"bufferView":126,"componentType":5126,"count":2111,"type":"VEC3","min":[-0.9996045231819153,-1.0,-0.9924930930137634],"max":[0.9996045231819153,0.9967659711837769,0.9975312352180481]},{"bufferView":127,"componentType":5126,"count":2111,"type":"VEC2"},{"bufferView":128,"componentType":5125,"count":3354,"type":"SCALAR"}]}