{"asset":{"version":"2.0","generator":"Prime Time Unity resource converter"},"scene":0,"scenes":[{"nodes":[0,1,2,3,4,5,6,7,8,9,10,11,12,13,14,15,16,17,18,19,20]}],"nodes":[{"name":"man_scientist","mesh":0},{"name":"man_hazard","mesh":1},{"name":"woman_scientist","mesh":2},{"name":"enemy_cop_001","mesh":3},{"name":"enemy_soldier_001","mesh":4},{"name":"enemy_soldier_002","mesh":5},{"name":"enemy_cop_002","mesh":6},{"name":"enemy_soldier","mesh":7},{"name":"enemy_cop","mesh":8},{"name":"man_cowboy","mesh":9},{"name":"man_lumberjack","mesh":10},{"name":"man_carpenter","mesh":11},{"name":"man_business","mesh":12},{"name":"man_casual","mesh":13},{"name":"man_construction_worker","mesh":14},{"name":"enemy_cop_001_japan","mesh":15},{"name":"enemy_cop_japan","mesh":16},{"name":"enemy_cop_002_japan","mesh":17},{"name":"police_assembled","mesh":18},{"name":"police_japan_assembled","mesh":19},{"name":"military_assembled","mesh":20}],"meshes":[{"name":"man_scientist","primitives":[{"attributes":{"POSITION":0,"NORMAL":1,"TEXCOORD_0":2},"indices":3,"mode":4,"material":0}]},{"name":"man_hazard","primitives":[{"attributes":{"POSITION":4,"NORMAL":5,"TEXCOORD_0":6},"indices":7,"mode":4,"material":1}]},{"name":"woman_scientist","primitives":[{"attributes":{"POSITION":8,"NORMAL":9,"TEXCOORD_0":10},"indices":11,"mode":4,"material":1}]},{"name":"enemy_cop_001","primitives":[{"attributes":{"POSITION":12,"NORMAL":13,"TEXCOORD_0":14},"indices":15,"mode":4,"material":2}]},{"name":"enemy_soldier_001","primitives":[{"attributes":{"POSITION":16,"NORMAL":17,"TEXCOORD_0":18},"indices":19,"mode":4,"material":3}]},{"name":"enemy_soldier_002","primitives":[{"attributes":{"POSITION":20,"NORMAL":21,"TEXCOORD_0":22},"indices":23,"mode":4,"material":3}]},{"name":"enemy_cop_002","primitives":[{"attributes":{"POSITION":24,"NORMAL":25,"TEXCOORD_0":26},"indices":27,"mode":4,"material":2}]},{"name":"enemy_soldier","primitives":[{"attributes":{"POSITION":28,"NORMAL":29,"TEXCOORD_0":30},"indices":31,"mode":4,"material":3}]},{"name":"enemy_cop","primitives":[{"attributes":{"POSITION":32,"NORMAL":33,"TEXCOORD_0":34},"indices":35,"mode":4,"material":2}]},{"name":"man_cowboy","primitives":[{"attributes":{"POSITION":36,"NORMAL":37,"TEXCOORD_0":38},"indices":39,"mode":4,"material":0}]},{"name":"man_lumberjack","primitives":[{"attributes":{"POSITION":40,"NORMAL":41,"TEXCOORD_0":42},"indices":43,"mode":4,"material":0}]},{"name":"man_carpenter","primitives":[{"attributes":{"POSITION":44,"NORMAL":45,"TEXCOORD_0":46},"indices":47,"mode":4,"material":0}]},{"name":"man_business","primitives":[{"attributes":{"POSITION":48,"NORMAL":49,"TEXCOORD_0":50},"indices":51,"mode":4,"material":0}]},{"name":"man_casual","primitives":[{"attributes":{"POSITION":52,"NORMAL":53,"TEXCOORD_0":54},"indices":55,"mode":4,"material":0}]},{"name":"man_construction_worker","primitives":[{"attributes":{"POSITION":56,"NORMAL":57,"TEXCOORD_0":58},"indices":59,"mode":4,"material":0}]},{"name":"enemy_cop_001_japan","primitives":[{"attributes":{"POSITION":60,"NORMAL":61,"TEXCOORD_0":62},"indices":63,"mode":4,"material":4}]},{"name":"enemy_cop_japan","primitives":[{"attributes":{"POSITION":64,"NORMAL":65,"TEXCOORD_0":66},"indices":67,"mode":4,"material":4}]},{"name":"enemy_cop_002_japan","primitives":[{"attributes":{"POSITION":68,"NORMAL":69,"TEXCOORD_0":70},"indices":71,"mode":4,"material":4}]},{"name":"police_assembled","primitives":[{"attributes":{"POSITION":72,"NORMAL":73,"TEXCOORD_0":34},"indices":35,"mode":4,"material":2},{"attributes":{"POSITION":74,"NORMAL":75,"TEXCOORD_0":14},"indices":15,"mode":4,"material":2},{"attributes":{"POSITION":76,"NORMAL":77,"TEXCOORD_0":26},"indices":27,"mode":4,"material":2}]},{"name":"police_japan_assembled","primitives":[{"attributes":{"POSITION":78,"NORMAL":79,"TEXCOORD_0":66},"indices":67,"mode":4,"material":4},{"attributes":{"POSITION":80,"NORMAL":81,"TEXCOORD_0":62},"indices":63,"mode":4,"material":4},{"attributes":{"POSITION":82,"NORMAL":83,"TEXCOORD_0":70},"indices":71,"mode":4,"material":4}]},{"name":"military_assembled","primitives":[{"attributes":{"POSITION":84,"NORMAL":85,"TEXCOORD_0":30},"indices":31,"mode":4,"material":3},{"attributes":{"POSITION":86,"NORMAL":87,"TEXCOORD_0":18},"indices":19,"mode":4,"material":3},{"attributes":{"POSITION":88,"NORMAL":89,"TEXCOORD_0":22},"indices":23,"mode":4,"material":3}]}],"materials":[{"name":"LOW-POLY-COLORS","doubleSided":true,"pbrMetallicRoughness":{"baseColorFactor":[1,1,1,1],"metallicFactor":0,"roughnessFactor":0.95,"baseColorTexture":{"index":0}}},{"name":"MatteBlack","doubleSided":true,"pbrMetallicRoughness":{"baseColorFactor":[0,0,0,1],"metallicFactor":0,"roughnessFactor":0.95}},{"name":"LOWPOLY-COLORS_001__palette_astalo_png_001","doubleSided":true,"pbrMetallicRoughness":{"baseColorFactor":[0.800000011920929,0.800000011920929,0.800000011920929,1],"metallicFactor":0,"roughnessFactor":0.95,"baseColorTexture":{"index":1}}},{"name":"palette_astalo","doubleSided":true,"pbrMetallicRoughness":{"baseColorFactor":[1,0.9764150977134705,0.9764150977134705,1],"metallicFactor":0,"roughnessFactor":0.95,"baseColorTexture":{"index":2}}},{"name":"LOWPOLY-COLORS_001__palette_astalo_png_001","doubleSided":true,"pbrMetallicRoughness":{"baseColorFactor":[0.800000011920929,0.800000011920929,0.800000011920929,1],"metallicFactor":0,"roughnessFactor":0.95,"baseColorTexture":{"index":1}}}],"textures":[{"source":0,"sampler":0},{"source":1,"sampler":0},{"source":2,"sampler":0}],"images":[{"uri":"color-atlas-new_104.png"},{"uri":"palette_astalo_99.png"},{"uri":"palette_astalo_77.png"}],"samplers":[{"magFilter":9728,"minFilter":9728,"wrapS":10497,"wrapT":10497}],"buffers":[{"byteLength":1520976,"uri":"humans.bin"}],"bufferViews":[{"buffer":0,"byteOffset":0,"byteLength":33144},{"buffer":0,"byteOffset":33144,"byteLength":33144},{"buffer":0,"byteOffset":66288,"byteLength":22096},{"buffer":0,"byteOffset":88384,"byteLength":16656},{"buffer":0,"byteOffset":105040,"byteLength":26160},{"buffer":0,"byteOffset":131200,"byteLength":26160},{"buffer":0,"byteOffset":157360,"byteLength":17440},{"buffer":0,"byteOffset":174800,"byteLength":13824},{"buffer":0,"byteOffset":188624,"byteLength":34872},{"buffer":0,"byteOffset":223496,"byteLength":34872},{"buffer":0,"byteOffset":258368,"byteLength":23248},{"buffer":0,"byteOffset":281616,"byteLength":17736},{"buffer":0,"byteOffset":299352,"byteLength":2676},{"buffer":0,"byteOffset":302028,"byteLength":2676},{"buffer":0,"byteOffset":304704,"byteLength":1784},{"buffer":0,"byteOffset":306488,"byteLength":1464},{"buffer":0,"byteOffset":307952,"byteLength":3336},{"buffer":0,"byteOffset":311288,"byteLength":3336},{"buffer":0,"byteOffset":314624,"byteLength":2224},{"buffer":0,"byteOffset":316848,"byteLength":1728},{"buffer":0,"byteOffset":318576,"byteLength":3348},{"buffer":0,"byteOffset":321924,"byteLength":3348},{"buffer":0,"byteOffset":325272,"byteLength":2232},{"buffer":0,"byteOffset":327504,"byteLength":1752},{"buffer":0,"byteOffset":329256,"byteLength":2712},{"buffer":0,"byteOffset":331968,"byteLength":2712},{"buffer":0,"byteOffset":334680,"byteLength":1808},{"buffer":0,"byteOffset":336488,"byteLength":1488},{"buffer":0,"byteOffset":337976,"byteLength":36744},{"buffer":0,"byteOffset":374720,"byteLength":36744},{"buffer":0,"byteOffset":411464,"byteLength":24496},{"buffer":0,"byteOffset":435960,"byteLength":18672},{"buffer":0,"byteOffset":454632,"byteLength":28236},{"buffer":0,"byteOffset":482868,"byteLength":28236},{"buffer":0,"byteOffset":511104,"byteLength":18824},{"buffer":0,"byteOffset":529928,"byteLength":14352},{"buffer":0,"byteOffset":544280,"byteLength":37860},{"buffer":0,"byteOffset":582140,"byteLength":37860},{"buffer":0,"byteOffset":620000,"byteLength":25240},{"buffer":0,"byteOffset":645240,"byteLength":19584},{"buffer":0,"byteOffset":664824,"byteLength":36840},{"buffer":0,"byteOffset":701664,"byteLength":36840},{"buffer":0,"byteOffset":738504,"byteLength":24560},{"buffer":0,"byteOffset":763064,"byteLength":18816},{"buffer":0,"byteOffset":781880,"byteLength":36792},{"buffer":0,"byteOffset":818672,"byteLength":36792},{"buffer":0,"byteOffset":855464,"byteLength":24528},{"buffer":0,"byteOffset":879992,"byteLength":18960},{"buffer":0,"byteOffset":898952,"byteLength":26796},{"buffer":0,"byteOffset":925748,"byteLength":26796},{"buffer":0,"byteOffset":952544,"byteLength":17864},{"buffer":0,"byteOffset":970408,"byteLength":14232},{"buffer":0,"byteOffset":984640,"byteLength":25332},{"buffer":0,"byteOffset":1009972,"byteLength":25332},{"buffer":0,"byteOffset":1035304,"byteLength":16888},{"buffer":0,"byteOffset":1052192,"byteLength":13416},{"buffer":0,"byteOffset":1065608,"byteLength":34584},{"buffer":0,"byteOffset":1100192,"byteLength":34584},{"buffer":0,"byteOffset":1134776,"byteLength":23056},{"buffer":0,"byteOffset":1157832,"byteLength":18312},{"buffer":0,"byteOffset":1176144,"byteLength":2688},{"buffer":0,"byteOffset":1178832,"byteLength":2688},{"buffer":0,"byteOffset":1181520,"byteLength":1792},{"buffer":0,"byteOffset":1183312,"byteLength":1464},{"buffer":0,"byteOffset":1184776,"byteLength":31428},{"buffer":0,"byteOffset":1216204,"byteLength":31428},{"buffer":0,"byteOffset":1247632,"byteLength":20952},{"buffer":0,"byteOffset":1268584,"byteLength":15912},{"buffer":0,"byteOffset":1284496,"byteLength":2712},{"buffer":0,"byteOffset":1287208,"byteLength":2712},{"buffer":0,"byteOffset":1289920,"byteLength":1808},{"buffer":0,"byteOffset":1291728,"byteLength":1488},{"buffer":0,"byteOffset":1293216,"byteLength":28236},{"buffer":0,"byteOffset":1321452,"byteLength":28236},{"buffer":0,"byteOffset":1349688,"byteLength":2676},{"buffer":0,"byteOffset":1352364,"byteLength":2676},{"buffer":0,"byteOffset":1355040,"byteLength":2712},{"buffer":0,"byteOffset":1357752,"byteLength":2712},{"buffer":0,"byteOffset":1360464,"byteLength":31428},{"buffer":0,"byteOffset":1391892,"byteLength":31428},{"buffer":0,"byteOffset":1423320,"byteLength":2688},{"buffer":0,"byteOffset":1426008,"byteLength":2688},{"buffer":0,"byteOffset":1428696,"byteLength":2712},{"buffer":0,"byteOffset":1431408,"byteLength":2712},{"buffer":0,"byteOffset":1434120,"byteLength":36744},{"buffer":0,"byteOffset":1470864,"byteLength":36744},{"buffer":0,"byteOffset":1507608,"byteLength":3336},{"buffer":0,"byteOffset":1510944,"byteLength":3336},{"buffer":0,"byteOffset":1514280,"byteLength":3348},{"buffer":0,"byteOffset":1517628,"byteLength":3348}],"accessors":[{"bufferView":0,"componentType":5126,"count":2762,"type":"VEC3","min":[-0.9308841228485107,0.0006917119026184082,-0.15292546153068542],"max":[0.9308841228485107,1.8578650951385498,0.16540229320526123]},{"bufferView":1,"componentType":5126,"count":2762,"type":"VEC3","min":[-1.0,-1.0,-0.9924930930137634],"max":[0.9992319345474243,0.9996651411056519,0.9976303577423096]},{"bufferView":2,"componentType":5126,"count":2762,"type":"VEC2"},{"bufferView":3,"componentType":5125,"count":4164,"type":"SCALAR"},{"bufferView":4,"componentType":5126,"count":2180,"type":"VEC3","min":[-0.9326984882354736,0.0006227493286132812,-0.1160927563905716],"max":[0.9326984882354736,1.8077683448791504,0.1717189997434616]},{"bufferView":5,"componentType":5126,"count":2180,"type":"VEC3","min":[-0.99920254945755,-0.9999994039535522,-0.9933512806892395],"max":[0.99920254945755,0.9979833364486694,0.9964038133621216]},{"bufferView":6,"componentType":5126,"count":2180,"type":"VEC2"},{"bufferView":7,"componentType":5125,"count":3456,"type":"SCALAR"},{"bufferView":8,"componentType":5126,"count":2906,"type":"VEC3","min":[-0.009249664843082428,1.810192952689249e-05,-0.0020040692761540413],"max":[0.009249664843082428,0.0179477296769619,0.0016664715949445963]},{"bufferView":9,"componentType":5126,"count":2906,"type":"VEC3","min":[-0.9986060261726379,-0.9998631477355957,-0.9993966817855835],"max":[0.9986060261726379,0.9983888864517212,0.9947273135185242]},{"bufferView":10,"componentType":5126,"count":2906,"type":"VEC2"},{"bufferView":11,"componentType":5125,"count":4434,"type":"SCALAR"},{"bufferView":12,"componentType":5126,"count":223,"type":"VEC3","min":[0.4287559986114502,-0.5655869841575623,-1.7124170064926147],"max":[1.0225969552993774,0.20033200085163116,0.09402000159025192]},{"bufferView":13,"componentType":5126,"count":223,"type":"VEC3","min":[-0.9972233772277832,-0.991807758808136,-0.9924286007881165],"max":[0.9931668639183044,0.9929119944572449,0.9360385537147522]},{"bufferView":14,"componentType":5126,"count":223,"type":"VEC2"},{"bufferView":15,"componentType":5125,"count":366,"type":"SCALAR"},{"bufferView":16,"componentType":5126,"count":278,"type":"VEC3","min":[-0.17840099334716797,-1.6269359588623047,-0.5656970143318176],"max":[0.5623559951782227,0.1255439966917038,0.25043201446533203]},{"bufferView":17,"componentType":5126,"count":278,"type":"VEC3","min":[-0.9932169318199158,-0.9749470353126526,-0.9504948854446411],"max":[0.9816276431083679,0.9502081871032715,0.9906037449836731]},{"bufferView":18,"componentType":5126,"count":278,"type":"VEC2"},{"bufferView":19,"componentType":5125,"count":432,"type":"SCALAR"},{"bufferView":20,"componentType":5126,"count":279,"type":"VEC3","min":[-0.4839029908180237,-1.6586350202560425,-0.22874799370765686],"max":[0.1633470058441162,0.09584400057792664,0.4841180145740509]},{"bufferView":21,"componentType":5126,"count":279,"type":"VEC3","min":[-0.985962450504303,-0.9802634119987488,-0.9500278234481812],"max":[0.995624840259552,0.947749137878418,0.9906038641929626]},{"bufferView":22,"componentType":5126,"count":279,"type":"VEC2"},{"bufferView":23,"componentType":5125,"count":438,"type":"SCALAR"},{"bufferView":24,"componentType":5126,"count":226,"type":"VEC3","min":[-0.21702399849891663,-0.2128710001707077,-1.7628270387649536],"max":[0.237419992685318,0.63544100522995,0.11213699728250504]},{"bufferView":25,"componentType":5126,"count":226,"type":"VEC3","min":[-0.9968452453613281,-0.9758967161178589,-0.960568904876709],"max":[0.9986743927001953,0.9929119944572449,0.8196159601211548]},{"bufferView":26,"componentType":5126,"count":226,"type":"VEC2"},{"bufferView":27,"componentType":5125,"count":372,"type":"SCALAR"},{"bufferView":28,"componentType":5126,"count":3062,"type":"VEC3","min":[-0.7213510274887085,1.4526029825210571,-0.2712329924106598],"max":[0.8477939963340759,3.7113280296325684,2.6057820320129395]},{"bufferView":29,"componentType":5126,"count":3062,"type":"VEC3","min":[-1.0,-1.0,-1.0],"max":[1.0,1.0,1.0]},{"bufferView":30,"componentType":5126,"count":3062,"type":"VEC2"},{"bufferView":31,"componentType":5125,"count":4668,"type":"SCALAR"},{"bufferView":32,"componentType":5126,"count":2353,"type":"VEC3","min":[-0.14599399268627167,-1.6469160318374634,1.6415319442749023],"max":[0.896232008934021,0.23109599947929382,3.569614887237549]},{"bufferView":33,"componentType":5126,"count":2353,"type":"VEC3","min":[-1.0,-1.0,-1.0],"max":[1.0,0.9970703125,1.0]},{"bufferView":34,"componentType":5126,"count":2353,"type":"VEC2"},{"bufferView":35,"componentType":5125,"count":3588,"type":"SCALAR"},{"bufferView":36,"componentType":5126,"count":3155,"type":"VEC3","min":[-0.9300712943077087,0.0006917044520378113,-0.2161841094493866],"max":[0.9300712943077087,1.8896077871322632,0.21810241043567657]},{"bufferView":37,"componentType":5126,"count":3155,"type":"VEC3","min":[-0.9999672174453735,-1.0,-0.9999905824661255],"max":[0.9999672174453735,0.9995032548904419,1.0]},{"bufferView":38,"componentType":5126,"count":3155,"type":"VEC2"},{"bufferView":39,"componentType":5125,"count":4896,"type":"SCALAR"},{"bufferView":40,"componentType":5126,"count":3070,"type":"VEC3","min":[-0.9308841228485107,-0.0015382170677185059,-0.1152256578207016],"max":[0.9308841228485107,1.851343035697937,0.16540227830410004]},{"bufferView":41,"componentType":5126,"count":3070,"type":"VEC3","min":[-0.9998192191123962,-0.9993953704833984,-0.9977769255638123],"max":[0.9998193383216858,1.0,0.9999923706054688]},{"bufferView":42,"componentType":5126,"count":3070,"type":"VEC2"},{"bufferView":43,"componentType":5125,"count":4704,"type":"SCALAR"},{"bufferView":44,"componentType":5126,"count":3066,"type":"VEC3","min":[-0.930884063243866,0.0007120184600353241,-0.1036558449268341],"max":[0.930884063243866,1.8007017374038696,0.19134195148944855]},{"bufferView":45,"componentType":5126,"count":3066,"type":"VEC3","min":[-0.9996886253356934,-1.0,-0.9958662986755371],"max":[0.9996886253356934,0.9998742341995239,0.9975311160087585]},{"bufferView":46,"componentType":5126,"count":3066,"type":"VEC2"},{"bufferView":47,"componentType":5125,"count":4740,"type":"SCALAR"},{"bufferView":48,"componentType":5126,"count":2233,"type":"VEC3","min":[-0.9308841228485107,0.0006917119026184082,-0.13736562430858612],"max":[0.9308841228485107,1.778948187828064,0.16540227830410004]},{"bufferView":49,"componentType":5126,"count":2233,"type":"VEC3","min":[-0.9999808073043823,-1.0,-0.9924930930137634],"max":[0.9999808073043823,0.9999856948852539,1.0]},{"bufferView":50,"componentType":5126,"count":2233,"type":"VEC2"},{"bufferView":51,"componentType":5125,"count":3558,"type":"SCALAR"},{"bufferView":52,"componentType":5126,"count":2111,"type":"VEC3","min":[-0.9308841228485107,0.0006917119026184082,-0.11011577397584915],"max":[0.9308841228485107,1.8053765296936035,0.16540229320526123]},{"bufferView":53,"componentType":5126,"count":2111,"type":"VEC3","min":[-0.9996045231819153,-1.0,-0.9924930930137634],"max":[0.9996045231819153,0.9967659711837769,0.9975312352180481]},{"bufferView":54,"componentType":5126,"count":2111,"type":"VEC2"},{"bufferView":55,"componentType":5125,"count":3354,"type":"SCALAR"},{"bufferView":56,"componentType":5126,"count":2882,"type":"VEC3","min":[-0.934153139591217,0.0006917084101587534,-0.12564393877983093],"max":[0.934153139591217,1.8506513833999634,0.1991529017686844]},{"bufferView":57,"componentType":5126,"count":2882,"type":"VEC3","min":[-1.0,-1.0,-0.999896764755249],"max":[1.0,0.99826580286026,0.9948393702507019]},{"bufferView":58,"componentType":5126,"count":2882,"type":"VEC2"},{"bufferView":59,"componentType":5125,"count":4578,"type":"SCALAR"},{"bufferView":60,"componentType":5126,"count":224,"type":"VEC3","min":[0.4287559986114502,-0.5655869841575623,-1.7124170064926147],"max":[1.0225969552993774,0.20033200085163116,0.09402000159025192]},{"bufferView":61,"componentType":5126,"count":224,"type":"VEC3","min":[-0.9972233772277832,-0.991807758808136,-0.9924286007881165],"max":[0.9931668639183044,0.9929119944572449,0.9360385537147522]},{"bufferView":62,"componentType":5126,"count":224,"type":"VEC2"},{"bufferView":63,"componentType":5125,"count":366,"type":"SCALAR"},{"bufferView":64,"componentType":5126,"count":2619,"type":"VEC3","min":[-0.14599399268627167,-1.6469160318374634,1.5960179567337036],"max":[0.896232008934021,0.23109599947929382,3.6376640796661377]},{"bufferView":65,"componentType":5126,"count":2619,"type":"VEC3","min":[-1.0,-1.0,-1.0],"max":[1.0,0.99951171875,1.0]},{"bufferView":66,"componentType":5126,"count":2619,"type":"VEC2"},{"bufferView":67,"componentType":5125,"count":3978,"type":"SCALAR"},{"bufferView":68,"componentType":5126,"count":226,"type":"VEC3","min":[-0.21702399849891663,-0.2128710001707077,-1.7628270387649536],"max":[0.237419992685318,0.63544100522995,0.11213699728250504]},{"bufferView":69,"componentType":5126,"count":226,"type":"VEC3","min":[-0.9968452453613281,-0.9758967161178589,-0.960568904876709],"max":[0.9986743927001953,0.9929119944572449,0.8196159601211548]},{"bufferView":70,"componentType":5126,"count":226,"type":"VEC2"},{"bufferView":71,"componentType":5125,"count":372,"type":"SCALAR"},{"bufferView":72,"componentType":5126,"count":2353,"type":"VEC3","min":[-0.40014326572418213,1.6415321826934814,-1.6469159126281738],"max":[0.6420827507972717,3.569615364074707,0.23109641671180725]},{"bufferView":73,"componentType":5126,"count":2353,"type":"VEC3","min":[-1.0,-1.0000001192092896,-1.0000001192092896],"max":[1.0,1.0000001192092896,0.9970704317092896]},{"bufferView":74,"componentType":5126,"count":223,"type":"VEC3","min":[-0.5265082120895386,0.032130539417266846,-0.5581623315811157],"max":[0.06733274459838867,1.8385677337646484,0.20775693655014038]},{"bufferView":75,"componentType":5126,"count":223,"type":"VEC3","min":[-0.9931668639183044,-0.992428719997406,-0.9918078780174255],"max":[0.9972233772277832,0.9360387325286865,0.9929121136665344]},{"bufferView":76,"componentType":5126,"count":226,"type":"VEC3","min":[0.0730469822883606,0.026566488668322563,-0.21287134289741516],"max":[0.5274909734725952,1.9015307426452637,0.6354405283927917]},{"bufferView":77,"componentType":5126,"count":226,"type":"VEC3","min":[-0.9986743927001953,-0.9605690836906433,-0.9758968949317932],"max":[0.9968452453613281,0.8196161389350891,0.9929121136665344]},{"bufferView":78,"componentType":5126,"count":2619,"type":"VEC3","min":[-0.40014326572418213,1.5960181951522827,-1.6469159126281738],"max":[0.6420827507972717,3.637664556503296,0.23109641671180725]},{"bufferView":79,"componentType":5126,"count":2619,"type":"VEC3","min":[-1.0,-1.0000001192092896,-1.0000001192092896],"max":[1.0,1.0000001192092896,0.9995118379592896]},{"bufferView":80,"componentType":5126,"count":224,"type":"VEC3","min":[-0.5265082120895386,-0.050106603652238846,-0.1813921481370926],"max":[0.06733274459838867,1.8881381750106812,0.594718873500824]},{"bufferView":81,"componentType":5126,"count":224,"type":"VEC3","min":[-0.9931668639183044,-0.9308468103408813,-0.9547684788703918],"max":[0.9972233772277832,0.7642138004302979,0.9563506245613098]},{"bufferView":82,"componentType":5126,"count":226,"type":"VEC3","min":[0.0730469822883606,0.026566488668322563,-0.21287134289741516],"max":[0.5274909734725952,1.9015307426452637,0.6354405283927917]},{"bufferView":83,"componentType":5126,"count":226,"type":"VEC3","min":[-0.9986743927001953,-0.9605690836906433,-0.9758968949317932],"max":[0.9968452453613281,0.8196161389350891,0.9929121136665344]},{"bufferView":84,"componentType":5126,"count":3062,"type":"VEC3","min":[-0.8477939963340759,1.4526029825210571,-2.6057822704315186],"max":[0.7213510274887085,3.7113280296325684,0.2712326943874359]},{"bufferView":85,"componentType":5126,"count":3062,"type":"VEC3","min":[-1.0,-1.0,-1.0],"max":[1.0,1.0,1.0]},{"bufferView":86,"componentType":5126,"count":278,"type":"VEC3","min":[-0.755402684211731,-0.038014162331819534,-0.25043195486068726],"max":[-0.014645665884017944,1.714465856552124,0.5656972527503967]},{"bufferView":87,"componentType":5126,"count":278,"type":"VEC3","min":[-0.9816276431083679,-0.9749470353126526,-0.9906037449836731],"max":[0.9932169318199158,0.9502081274986267,0.9504948258399963]},{"bufferView":88,"componentType":5126,"count":279,"type":"VEC3","min":[0.014849796891212463,-0.05486348643898964,-0.4841177463531494],"max":[0.6620997786521912,1.6996155977249146,0.22874806821346283]},{"bufferView":89,"componentType":5126,"count":279,"type":"VEC3","min":[-0.995624840259552,-0.9802634119987488,-0.9906038641929626],"max":[0.985962450504303,0.9477490782737732,0.9500278234481812]}]}